<svg width="85" height="25" viewBox="0 0 85 25" fill="none" xmlns="http://www.w3.org/2000/svg">
<path fill-rule="evenodd" clip-rule="evenodd" d="M51.5376 3L51.1911 6.9649L59.7839 7.99895L50.8881 9.41521L51.0287 13.5459L47.5612 10.4183L41.0474 13.1773L45.0598 9.31997L31.929 7.95937L47.792 6.88821L51.5376 3Z" fill="#CD9A33"/>
<path fill-rule="evenodd" clip-rule="evenodd" d="M26.4845 11.2792C27.6466 11.3684 28.8139 11.3665 29.9756 11.2737L27.0842 20.3086C25.9223 20.2163 24.7547 20.2182 23.5931 20.3142L26.4845 11.2792ZM69.7864 11.2792C70.9484 11.3684 72.1157 11.3665 73.2775 11.2737L70.3867 20.3086C69.2247 20.2163 68.0572 20.2182 66.8956 20.3142L69.7864 11.2805V11.2792ZM16.6482 15.361C18.6581 15.4692 19.7194 14.7426 20.0435 13.7877C20.1166 13.5993 20.1653 13.4025 20.1884 13.202C20.3004 12.1822 18.7813 12.356 17.631 12.3015L16.6482 15.361ZM11.5763 20.3136C12.1051 20.2882 12.8783 20.2375 13.399 20.2375C13.9197 20.2375 14.5548 20.2827 15.0674 20.308L16.3408 16.3209C16.6457 16.8014 16.9374 17.2188 17.1408 17.5578L18.8242 20.3025C19.4575 20.2771 20.1928 20.235 20.8149 20.235C21.4606 20.235 22.4173 20.2882 23.0344 20.3136L22.2543 19.2257C21.3834 18.0507 20.627 17.131 19.8699 15.9164C21.8886 15.6634 23.3318 14.7692 23.7268 13.5298C24.0024 12.6695 23.4245 11.9181 22.3582 11.539C21.2646 11.3086 20.1451 11.2229 19.0289 11.2842H14.4659L11.5763 20.3136ZM3.82705 19.1583H4.70916C5.85503 19.1583 7.1471 18.5399 7.45627 17.661C7.84694 16.5546 7.08302 15.9652 4.82051 16.0661L3.82518 19.1583H3.82705ZM5.15581 15.0029C5.90202 15.0881 6.6578 14.9854 7.35363 14.7042C7.62698 14.604 7.87595 14.4476 8.08425 14.2451C8.29254 14.0426 8.45546 13.7986 8.56233 13.5292C8.81925 12.7592 8.33714 12.3096 6.96234 12.3096C6.64277 12.3048 6.32318 12.3172 6.00495 12.3467L5.15581 15.006V15.0029ZM2.86531 11.2873L8.17104 11.2922C10.5014 11.2922 12.5617 11.6472 12.0678 13.416C11.7567 14.5329 10.237 15.1984 8.75704 15.4371C10.1922 15.6758 11.4731 16.2689 11.0488 17.6406C10.5076 19.3915 7.50604 20.2381 5.04757 20.2381H0L2.86531 11.2873ZM30.8621 11.2873H42.0421C41.7346 11.6986 41.5676 12.1971 41.5656 12.7097C40.3078 12.6025 39.0725 12.5392 37.8599 12.5198L35.3716 20.3062C34.2095 20.217 33.0422 20.2189 31.8804 20.3117L34.3762 12.5192C33.0543 12.5273 31.7181 12.6052 30.3738 12.7215C30.6928 12.3096 30.8648 11.804 30.8627 11.2842L30.8621 11.2873ZM44.2474 13.1055L37.0711 20.2956C37.9005 20.2123 38.7359 20.2071 39.5663 20.2802C40.2875 19.4036 41.0464 18.5271 41.8431 17.6505H46.5C46.7677 18.5219 46.9756 19.4104 47.1221 20.3099C48.4438 20.2037 49.772 20.2053 51.0934 20.3148L48.7258 13.4191L47.1028 11.9441L44.2468 13.1055H44.2474ZM42.9933 16.5435L45.4057 14.0913L46.1653 16.5435H42.9933ZM51.5942 20.2888C52.2708 20.2286 52.9514 20.2265 53.6284 20.2827L55.5463 14.2837C58.0763 16.267 60.4477 18.2721 62.722 20.2907L64.6828 20.3043L67.5761 11.2669C66.9006 11.3431 66.2188 11.3465 65.5425 11.2768L63.6825 17.0778C61.443 15.1483 59.1015 13.2193 56.7314 11.2897H54.4763L51.5942 20.2919V20.2888ZM70.9777 20.295C71.8073 20.2168 72.6423 20.2116 73.4728 20.2796C74.1665 19.4137 74.954 18.5324 75.7496 17.6499H80.4065C80.6754 18.521 80.8832 19.4096 81.0286 20.3093C82.351 20.22 83.6779 20.2216 85 20.3142L81.8778 11.1611C81.289 11.2209 80.6958 11.2226 80.1067 11.166L70.9777 20.295ZM76.8999 16.5429L79.3123 14.0907L80.0719 16.5429H76.8999Z" fill="#0E436E"/>
</svg>
